<?xml version="1.0" encoding="UTF-8"?>
<svg version="1.1" viewBox="0 0 673.88 196.48" xml:space="preserve" xmlns="http://www.w3.org/2000/svg" xmlns:cc="http://creativecommons.org/ns#" xmlns:dc="http://purl.org/dc/elements/1.1/" xmlns:rdf="http://www.w3.org/1999/02/22-rdf-syntax-ns#"><metadata><rdf:RDF><cc:Work rdf:about=""><dc:format>image/svg+xml</dc:format><dc:type rdf:resource="http://purl.org/dc/dcmitype/StillImage"/></cc:Work></rdf:RDF></metadata><defs><linearGradient id="c" x2="1" gradientTransform="matrix(-1039.7 -1039.7 -1039.7 1039.7 2010.7 1472.7)" gradientUnits="userSpaceOnUse"><stop stop-color="#f57724" offset="0"/><stop stop-color="#ed1e24" offset="1"/></linearGradient><linearGradient id="b" x2="1" gradientTransform="matrix(-1307.1 -1307.1 -1307.1 1307.1 1442.4 1171.8)" gradientUnits="userSpaceOnUse"><stop stop-color="#f57724" offset="0"/><stop stop-color="#ed1e24" offset="1"/></linearGradient><linearGradient id="a" x2="1" gradientTransform="matrix(-202.55 -202.55 -202.55 202.55 748.08 852.32)" gradientUnits="userSpaceOnUse"><stop stop-color="#f57724" offset="0"/><stop stop-color="#ed1e24" offset="1"/></linearGradient></defs><g transform="matrix(1.3333 0 0 -1.3333 0 196.48)"><g transform="scale(.1)"><path d="m2849.2 552.93c41.41-13.246 60.45-23.188 60.45-75.356 0-58.789-20.7-69.558-95.23-69.558-39.74 0-72.86 0.828-181.34 3.316l-6.62-76.187c82.8-16.551 150.7-18.211 185.48-18.211 146.57 0 202.88 29.808 202.88 159.82 0 83.633-27.33 137.46-117.59 166.44l-110.13 33.949c-44.72 14.078-63.76 25.668-63.76 76.179 0 61.282 25.67 65.422 95.23 65.422 56.3 0 122.55-1.66 169.75-3.316l6.62 73.695c-61.28 15.738-125.04 19.051-179.69 19.051-136.63 0-196.25-22.359-196.25-153.2 0-85.289 30.64-138.28 115.1-165.61l115.1-36.437" fill="#242322"/><path d="m3153 557.9c2.48 85.293 25.67 106.82 95.22 106.82 62.11 0 80.32-16.563 80.32-59.621 0-21.528-4.14-47.199-36.43-47.199zm167.26-70.383c75.35 0 108.48 43.058 108.48 115.93 0 91.914-53 140.77-184.66 140.77-137.45 0-196.24-52.996-196.24-213.64 0-154.02 55.47-213.64 202.87-213.64 51.33 0 124.21 6.621 167.26 27.332l-9.1 64.578c-48.86-5.789-106.83-9.93-145.74-9.93-69.56 0-100.2 14.899-108.48 88.602h165.61" fill="#242322"/><path d="m3562.9 732.61h-84.46v-405.75h101.02v282.38c55.48 31.465 92.74 49.684 133.32 49.684 32.29 0 43.06-12.422 43.06-57.965v-274.09h101.02v304.74c0 72.871-39.75 112.62-111.79 112.62-58.79 0-117.58-27.328-175.54-71.215l-6.63 59.617" fill="#242322"/><path d="m4194.7 444.45c-44.72-29.808-66.25-42.23-106.82-42.23-53.83 0-76.18 24.011-76.18 130.84 0 109.3 22.35 129.18 81.97 129.18 36.44 0 64.59-7.457 101.03-16.562zm101.02 462.06h-101.02v-116.76c0-28.156 0.82-54.652 4.13-81.152-39.74 24.843-86.94 35.609-134.97 35.609-102.67 0-155.67-50.512-155.67-211.99 0-137.45 39.75-215.29 142.43-215.29 66.24 0 120.89 31.468 157.33 65.422l8.28-55.493h79.49v579.65" fill="#242322"/><path d="m4453.8 557.9c2.49 85.293 25.67 106.82 95.23 106.82 62.1 0 80.32-16.563 80.32-59.621 0-21.528-4.14-47.199-36.43-47.199zm167.27-70.383c75.36 0 108.48 43.058 108.48 115.93 0 91.914-53 140.77-184.66 140.77-137.45 0-196.25-52.996-196.25-213.64 0-154.02 55.48-213.64 202.87-213.64 51.34 0 124.21 6.621 167.27 27.332l-9.11 64.578c-48.85-5.789-106.82-9.93-145.73-9.93-69.56 0-100.2 14.899-108.48 88.602h165.61" fill="#242322"/><path d="m5054.1 744.21h-19.87c-53 0-111.79-25.676-167.27-71.215l-9.11 59.617h-78.66v-405.75h101.02v286.52c57.96 23.184 95.22 36.438 134.15 36.438h28.97l10.77 94.398" fill="#242322"/><path d="m1747.9 1473.6-159.95-134.94h203.26l-857.57-671.82v-196.43l946.2 768.51v-166.88l129.94 110.96v290.6h-261.88" fill="url(#c)" fill-rule="evenodd"/><path d="m1744.8 628.59v-498.94h-1614.9v1074.2h986.12l164.53 129.65h-1280.6v-1333.5h1874.8v730.98l-129.93-102.39" fill="url(#b)" fill-rule="evenodd"/><path d="m328.49 1000.2 605.12-333.39v-196.32l-605.12 396.36v133.36" fill="url(#a)" fill-rule="evenodd"/></g></g></svg>